# xmcd CD database file
#
# Track frame offsets:
#	150
#	17976
#	38175
#	55010
#	76562
#	94635
#	107821
#	125883
#	146241
#	167865
#	183580
#	206369
#	231560
#	251352
#	270747
#	291797
#	307856
#	323463
#
# Disc length: 4495 seconds
#
# Revision: 0
# Processed by: cddbd v1.5.1PL0 Copyright (c) Steve Scherf et al.
# Submitted via: CDex 1.51
#
DISCID=fa118d12
DTITLE=Secret Garden - The Greatest Hits-Vol.3
DYEAR=2001
DGENRE=New Age
TTITLE0=Awakening
TTITLE1=Appassionata
TTITLE2=Silent Wings
TTITLE3=Green Waves
TTITLE4=Invitation
TTITLE5=Divertimento
TTITLE6=Belonging
TTITLE7=Gates Of Down
TTITLE8=First Day Of Spring
TTITLE9=Fairy Tale
TTITLE10=Once In A Red Moon
TTITLE11=Elegie
TTITLE12=Sanctuary
TTITLE13=Illumination
TTITLE14=Aguarell
TTITLE15=Cantoluna
TTITLE16=Papillon
TTITLE17=Reflection
EXTD=YEAR: 2001
EXTT0=
EXTT1=
EXTT2=
EXTT3=
EXTT4=
EXTT5=
EXTT6=
EXTT7=
EXTT8=
EXTT9=
EXTT10=
EXTT11=
EXTT12=
EXTT13=
EXTT14=
EXTT15=
EXTT16=
EXTT17=
PLAYORDER=
